<?xml version="1.0" encoding="UTF-8" standalone="no"?>
<!-- Created with Inkscape (http://www.inkscape.org/) -->

<svg
   width="65.068695mm"
   height="60.164764mm"
   viewBox="0 0 65.068695 60.164764"
   version="1.1"
   id="svg5"
   xml:space="preserve"
   inkscape:version="1.2.2 (b0a8486541, 2022-12-01)"
   sodipodi:docname="logo_hm.svg"
   inkscape:export-filename="logo_hm.png"
   inkscape:export-xdpi="96"
   inkscape:export-ydpi="96"
   xmlns:inkscape="http://www.inkscape.org/namespaces/inkscape"
   xmlns:sodipodi="http://sodipodi.sourceforge.net/DTD/sodipodi-0.dtd"
   xmlns="http://www.w3.org/2000/svg"
   xmlns:svg="http://www.w3.org/2000/svg"><sodipodi:namedview
     id="namedview7"
     pagecolor="#ffffff"
     bordercolor="#000000"
     borderopacity="0.25"
     inkscape:showpageshadow="2"
     inkscape:pageopacity="0.0"
     inkscape:pagecheckerboard="0"
     inkscape:deskcolor="#d1d1d1"
     inkscape:document-units="mm"
     showgrid="false"
     inkscape:zoom="0.914906"
     inkscape:cx="-336.1001"
     inkscape:cy="162.85826"
     inkscape:window-width="2560"
     inkscape:window-height="1368"
     inkscape:window-x="0"
     inkscape:window-y="40"
     inkscape:window-maximized="1"
     inkscape:current-layer="layer1" /><defs
     id="defs2" /><g
     inkscape:label="Calque 1"
     inkscape:groupmode="layer"
     id="layer1"
     transform="translate(-22.502886,-117.33784)"><path
       style="fill:#000000;stroke-width:0.264583"
       d="m 29.548734,165.67571 c -0.607998,-0.37252 -1.662294,-1.98984 -3.156268,-4.84178 -0.800419,-1.52797 -1.73417,-3.24696 -2.075004,-3.81997 -0.586752,-0.98646 -0.625516,-1.34207 -0.729146,-6.68887 -0.100581,-5.18953 -0.149676,-5.66854 -0.606022,-5.91277 -0.585762,-0.31349 -0.639654,-0.86001 -0.134607,-1.36506 0.521098,-0.5211 0.768028,-1.43928 0.87342,-3.24771 0.163938,-2.81301 0.246977,-3.42578 0.567038,-4.18441 0.38337,-0.90868 0.399743,-1.77396 0.05093,-2.69142 -0.342289,-0.90028 -0.815095,-5.06711 -0.629763,-5.55008 0.07872,-0.20513 0.30273,-0.31172 0.497808,-0.23686 0.384949,0.14772 0.974741,-0.73046 0.861863,-1.28328 -0.03834,-0.18779 0.108875,-0.34144 0.327156,-0.34144 0.275888,0 0.371317,0.21891 0.313037,0.71812 -0.07017,0.60106 0.03766,0.74511 0.661458,0.88366 2.396006,0.53217 3.12413,1.03069 3.48698,2.38744 0.263098,0.98376 0.725206,1.0953 0.942981,0.22762 0.302406,-1.20489 -0.912159,-2.61868 -2.730178,-3.17803 -1.186947,-0.36518 -1.310692,-0.77837 -0.376048,-1.25565 0.847834,-0.43294 2.296891,-0.30365 2.75274,0.24562 0.16802,0.20245 0.440866,0.36809 0.606324,0.36809 0.383793,0 1.021291,-1.00531 0.831863,-1.31181 -0.161411,-0.26117 1.951224,-3.56517 2.151543,-3.36485 0.147847,0.14785 -0.358886,1.67447 -1.376678,4.14749 -0.389287,0.94589 -0.814366,2.47187 -0.944621,3.39108 -0.130255,0.9192 -0.468098,2.17895 -0.750763,2.79944 -0.282665,0.62049 -0.746483,1.71813 -1.030707,2.43922 l -0.51677,1.31105 0.664528,0.59191 c 0.49612,0.44191 0.61817,0.74125 0.481601,1.18117 -0.10061,0.32409 -0.250591,0.88691 -0.33329,1.25072 -0.0827,0.3638 -0.281446,0.74893 -0.44166,0.85584 -0.187602,0.12519 -0.146937,0.19583 0.114236,0.19844 0.335204,0.003 0.402562,0.41612 0.3884,2.38011 -0.01476,2.04618 -0.08942,2.42887 -0.537826,2.7565 -0.605308,0.44227 -0.6655,1.88111 -0.301213,7.20033 0.191847,2.8013 0.167128,3.22485 -0.196351,3.36433 -0.283573,0.10882 -0.546227,-0.0926 -0.825816,-0.63326 -0.329768,-0.6377 -0.381728,-1.40225 -0.265567,-3.90756 0.172829,-3.72746 -0.0097,-4.19194 -1.535223,-3.90576 -1.068233,0.2004 -1.051958,0.15419 -0.987274,2.80353 0.05636,2.3085 0.504118,4.48055 1.095575,5.31463 0.266936,0.37643 0.6019,1.4082 0.744365,2.29283 0.296579,1.84158 1.327945,4.19166 2.208129,5.03146 0.330559,0.31539 0.898673,0.88311 1.262475,1.26158 0.363802,0.37848 1.19724,1.00292 1.852084,1.38766 0.654843,0.38473 1.230312,0.79322 1.278819,0.90776 0.04851,0.11453 0.420491,0.20824 0.826631,0.20824 0.40614,0 1.241927,0.17764 1.857306,0.39476 0.685392,0.24182 1.276033,0.30681 1.524531,0.16774 0.292041,-0.16343 0.06965,-0.2774 -0.794023,-0.40692 -1.530173,-0.22946 -5.096119,-1.95125 -6.214619,-3.00068 -1.334822,-1.25238 -1.052787,-2.81629 0.562539,-3.11933 0.668469,-0.1254 1.230306,0.008 2.281732,0.54047 2.221266,1.12561 3.908382,0.59321 6.371697,-2.01068 2.117816,-1.88758 4.312259,-3.22822 6.88741,-4.23451 1.881434,-0.72556 2.341454,-0.80579 3.723402,-0.64944 1.6267,0.18403 2.79105,0.70531 4.345053,1.94525 1.9081,1.3737 -0.882094,2.19796 -2.14527,2.56958 -5.278318,1.71292 -10.742658,3.96284 -16.150391,4.09961 -0.912094,0 -1.130481,0.30975 -0.698245,0.99038 0.31538,0.49662 3.871144,1.62584 5.714109,1.81466 2.150594,0.22033 4.24956,-0.23992 7.026077,-1.54063 2.799783,-1.31162 3.665662,-1.47267 4.442272,-0.82627 l 0.586179,0.4879 -1.669923,3.30729 c -0.918456,1.81901 -2.420215,4.47316 -3.33724,5.8981 -0.917027,1.42495 -1.618763,2.63938 -1.559414,2.69873 0.214103,0.2141 2.603867,-1.52487 2.603867,-1.89477 0,-0.29912 1.456373,-1.16957 2.116667,-1.26509 0.660506,-0.0955 1.905325,-0.84861 2.235353,-1.3523 0.225505,-0.34416 0.868003,-0.74789 1.431809,-0.89971 0.562509,-0.15146 1.461085,-0.57286 1.996834,-0.93643 0.535747,-0.36356 1.063699,-0.66103 1.173224,-0.66103 0.109526,0 0.640019,-0.4515 1.178874,-1.00334 0.849109,-0.86957 0.979739,-1.16943 0.979739,-2.24896 0,-0.7003 -0.122669,-1.24562 -0.280199,-1.24562 -0.154109,0 -0.216447,-0.10315 -0.13853,-0.22922 0.07792,-0.12607 -0.08038,-0.43018 -0.35178,-0.67579 -0.271396,-0.24561 -0.885132,-1.36285 -1.363855,-2.48275 -0.478722,-1.11991 -0.982816,-2.18502 -1.120209,-2.36692 -0.163917,-0.21702 -0.146622,-0.33073 0.0503,-0.33073 0.193072,0 0.25463,-0.35388 0.172596,-0.99219 -0.07013,-0.5457 -0.200401,-1.68667 -0.289488,-2.53547 -0.143053,-1.36298 -0.247124,-1.57936 -0.890786,-1.85208 -0.439513,-0.18623 -0.679101,-0.45682 -0.603578,-0.6817 0.08492,-0.25286 -0.0098,-0.32107 -0.29427,-0.21191 -0.286814,0.11006 -0.374756,0.0444 -0.278035,-0.20768 0.09415,-0.24534 -0.03494,-0.35538 -0.385892,-0.32894 -0.713751,0.0538 -2.686129,-0.91537 -2.689908,-1.32169 -0.0021,-0.23623 -0.263297,-0.20234 -0.944713,0.12261 -0.740227,0.35299 -0.985829,0.37761 -1.148061,0.11512 -0.196895,-0.31859 -0.712902,-0.2917 -2.077448,0.10824 -0.371194,0.1088 -0.595312,0.061 -0.595312,-0.12705 0,-0.19452 -0.22361,-0.15503 -0.630016,0.11126 -0.346509,0.22704 -1.07755,0.45296 -1.624536,0.50204 -0.568416,0.051 -1.097645,0.27352 -1.235214,0.51934 -0.132382,0.23655 -0.403355,0.4301 -0.602162,0.4301 -0.198807,0 -0.936776,0.53578 -1.639931,1.19062 -0.703156,0.65485 -1.353134,1.19063 -1.444397,1.19063 -0.09126,0 -0.236933,-0.35501 -0.323713,-0.78891 -0.08678,-0.4339 -0.45885,-1.05068 -0.826823,-1.37063 -0.367973,-0.31995 -0.682853,-0.82814 -0.699733,-1.12932 -0.02983,-0.53225 -0.03434,-0.53277 -0.160764,-0.0185 -0.291269,1.18497 -1.229064,1.60439 -1.522202,0.68079 -0.089,-0.28041 0.03352,-1.10705 0.272263,-1.83696 0.360127,-1.10103 0.37968,-1.49196 0.114769,-2.29465 -0.313192,-0.94898 -0.297316,-0.98993 0.828439,-2.13699 0.631263,-0.64321 1.299255,-1.11134 1.484427,-1.04028 0.39675,0.15225 0.456881,-0.27784 0.07209,-0.51566 -0.145521,-0.0899 -0.264584,-0.39462 -0.264584,-0.67707 0,-0.45999 0.278779,-0.63664 0.859896,-0.54488 0.109141,0.0172 0.198438,-0.26143 0.198438,-0.61925 0,-0.35782 0.208308,-1.05519 0.462908,-1.54971 0.438685,-0.85207 0.536699,-0.89912 1.873082,-0.89912 1.066091,0 1.541724,-0.13155 1.949313,-0.53913 l 0.539139,-0.53914 -0.821687,-0.18048 c -0.952824,-0.20926 -1.276653,-0.59043 -0.857618,-1.00947 0.216206,-0.2162 0.294446,-0.17492 0.294446,0.15535 0,0.92605 0.484442,0.39686 1.069954,-1.16878 0.555864,-1.48637 0.569304,-1.63872 0.164551,-1.86523 -0.655226,-0.36668 -0.553603,-0.57838 0.683724,-1.42433 1.12189,-0.76701 1.136056,-0.7691 6.151563,-0.90689 3.298539,-0.0906 4.893492,-0.22399 4.638564,-0.38787 -0.610733,-0.39263 -6.185943,-0.51446 -7.921041,-0.1731 -1.445651,0.28441 -1.618396,0.26385 -2.497536,-0.29725 -0.949351,-0.60592 -1.251476,-1.36456 -0.636133,-1.59734 0.319719,-0.12095 6.665026,-0.30717 7.739062,-0.22712 3.450566,0.25716 6.253644,0.30323 6.128483,0.10072 -0.267232,-0.43239 -3.634721,-0.84958 -7.80247,-0.96662 -2.230379,-0.0626 -4.093842,-0.15434 -4.141028,-0.20379 -0.119298,-0.12501 -0.222824,-1.76779 -0.176572,-2.80188 0.04683,-1.04708 0.490297,-1.13836 0.642705,-0.13229 0.09071,0.59883 0.117236,0.5558 0.149865,-0.24314 0.04086,-1.00071 0.617725,-2.30518 1.428705,-3.23078 0.521306,-0.59499 0.607121,-0.39857 0.177001,0.40512 -0.505669,0.94485 -0.05921,0.81435 0.542001,-0.15843 0.319511,-0.51698 0.704858,-0.93996 0.856327,-0.93996 0.157395,0 0.119803,0.1984 -0.08772,0.46302 -0.331126,0.42222 -0.321263,0.43014 0.111937,0.0899 0.261284,-0.20521 0.424251,-0.50553 0.362148,-0.66737 -0.162784,-0.42421 1.629982,-1.69222 3.422627,-2.42081 1.514636,-0.61559 1.5504,-0.61775 2.080231,-0.12531 0.296505,0.27558 1.015349,0.58792 1.597432,0.6941 2.564257,0.46773 4.789191,2.93418 5.104093,5.65815 0.126317,1.09266 0.155787,1.13105 0.406212,0.52916 l 0.270013,-0.64897 0.11195,0.64984 c 0.159557,0.92618 -0.425974,2.73032 -0.83516,2.5733 -0.182922,-0.0702 -0.467265,0.088 -0.631872,0.35161 -0.237326,0.38002 -0.21389,0.51201 0.113196,0.63752 0.295273,0.11331 0.363683,0.35275 0.240739,0.84259 -0.09755,0.38868 -0.03853,0.84482 0.136626,1.05587 0.236003,0.28437 0.229547,0.46654 -0.02751,0.77628 -0.234011,0.28196 -0.259966,0.58288 -0.08558,0.99218 0.137663,0.32312 0.230955,0.85537 0.207317,1.18279 -0.056,0.77574 0.220758,0.75386 0.836552,-0.0661 0.273203,-0.3638 0.611635,-0.66146 0.752067,-0.66146 0.140436,0 0.647957,-0.38054 1.127827,-0.84565 0.993568,-0.96301 1.120195,-0.75451 0.329472,0.54247 -0.8777,1.43965 -0.468514,1.4994 1.163569,0.16992 0.840785,-0.6849 1.584264,-1.18971 1.652174,-1.12179 0.06791,0.0679 -0.188349,0.7443 -0.569468,1.5031 -0.381119,0.75879 -0.640916,1.43165 -0.577323,1.49524 0.06359,0.0636 0.568955,-0.24464 1.123027,-0.68496 1.153985,-0.91707 1.431633,-0.87837 0.78446,0.10934 -0.566595,0.86473 -0.384133,0.85885 1.1528,-0.0372 1.103082,-0.6431 1.194562,-0.66113 0.840864,-0.16576 -0.882941,1.2366 -4.550161,5.30174 -5.420074,6.00818 -0.511458,0.41535 -0.929925,0.86602 -0.929925,1.0015 0,0.46584 1.19222,-0.37805 2.248958,-1.59188 1.763286,-2.02543 2.421829,-2.57089 4.022267,-3.33157 0.84369,-0.40101 1.753936,-0.84305 2.022769,-0.98231 0.815125,-0.42227 0.794538,-0.0498 -0.06641,1.20159 -0.450588,0.65491 -0.819253,1.32615 -0.819253,1.49164 0,0.36662 1.006697,0.099 1.608333,-0.42753 0.61526,-0.53848 0.803712,-0.4481 0.616982,0.29588 -0.187484,0.74699 -0.110421,0.7692 1.305224,0.37611 1.435005,-0.39846 1.45424,-0.15978 0.05329,0.66123 -1.144386,0.67066 -1.548717,1.21162 -0.905597,1.21162 0.20932,0 0.202705,0.11359 -0.02241,0.38483 -0.273883,0.33001 -0.199466,0.35044 0.522415,0.1434 0.462984,-0.13278 1.011724,-0.38245 1.219417,-0.55482 0.50764,-0.4213 0.792006,-0.0912 0.364839,0.42346 -0.519988,0.62655 -0.144526,0.74979 0.798539,0.26211 1.217565,-0.62963 0.881055,-0.0995 -0.753586,1.18718 -0.775639,0.61054 -1.350873,1.16945 -1.278292,1.24202 0.106185,0.10619 2.998949,-0.71948 4.937506,-1.40929 0.218281,-0.0777 -0.237691,0.47566 -1.013272,1.22962 -0.775581,0.75397 -1.357641,1.42335 -1.293466,1.48753 0.06417,0.0642 0.438602,-0.006 0.832059,-0.15531 1.032298,-0.39248 1.39696,-0.34545 0.931399,0.12011 -0.215648,0.21564 -1.044834,0.62366 -1.842632,0.9067 -1.43265,0.50828 -1.438693,0.51486 -0.48986,0.53396 0.528378,0.0106 1.778534,-0.28006 2.778125,-0.64598 1.831255,-0.67036 1.842619,-0.58535 0.08894,0.66531 -0.358142,0.25542 -0.495818,0.55413 -0.386254,0.83807 0.152939,0.39635 0.261464,0.40307 1.067853,0.0661 1.186227,-0.49564 1.609794,-0.49701 1.200547,-0.004 -0.23662,0.28511 -0.228796,0.39809 0.03375,0.4874 0.187976,0.0639 -0.194008,0.39197 -0.848852,0.72895 -1.431337,0.73657 -1.098952,0.9259 0.957964,0.54566 0.83626,-0.15459 1.766496,-0.27745 2.067192,-0.27303 0.49839,0.007 0.505788,0.0319 0.0837,0.27773 -0.667713,0.38891 -0.569171,0.77256 0.198438,0.77256 0.363802,0 0.661458,0.11906 0.661458,0.26458 0,0.14552 -0.361011,0.26459 -0.802248,0.26459 -1.087433,0 -2.709805,0.70568 -2.576521,1.12071 0.05908,0.18397 0.605348,0.44666 1.21393,0.58375 0.608578,0.13709 1.106506,0.34545 1.106506,0.46302 0,0.11757 -0.09922,0.21377 -0.220485,0.21377 -0.12127,0 -0.220488,0.17859 -0.220488,0.39687 0,0.23053 0.240016,0.39688 0.572653,0.39688 0.770856,0 1.480654,1.24246 0.914427,1.60065 -0.211558,0.13383 -0.600036,0.24515 -0.863285,0.24738 -0.26325,0.002 -0.405051,0.12311 -0.315114,0.26863 0.08994,0.14552 0.454152,0.26459 0.809366,0.26459 0.747255,0 0.891426,0.69077 0.182822,0.87594 -0.395034,0.10324 -0.399397,0.12551 -0.02972,0.1517 0.352358,0.0249 0.435144,0.35001 0.443163,1.74004 0.01024,1.77559 -0.163824,2.15717 -1.754875,3.8469 -14.758185,5.89076 -26.228042,12.5392 -30.10508,15.51935 l -1.085583,0.88488 h -6.881373 -6.881372 l 0.103848,-0.59531 c -9.619176,-8.93112 -8.912743,-7.89651 -11.370477,-11.23158 z m 15.66933,8.75791 c -0.193188,-0.23278 -0.324281,-0.77718 -0.291318,-1.20977 0.05175,-0.67924 -0.02169,-0.7749 -0.538339,-0.70125 -0.819393,0.11681 -0.907556,0.92687 -0.184628,1.69639 0.695225,0.74003 1.611192,0.93385 1.014285,0.21463 z m -1.881308,-0.50982 c -0.08146,-0.0815 -0.229406,0.0654 -0.328765,0.32632 -0.143586,0.37709 -0.113195,0.40748 0.148112,0.14812 0.180821,-0.17948 0.262115,-0.39297 0.180653,-0.47444 z m 4.010884,-0.44039 c 0.470978,-0.17644 0.557528,-0.30314 0.311127,-0.45542 -0.27429,-0.16952 -0.257515,-0.41166 0.08537,-1.23231 0.234707,-0.56173 0.517702,-1.08503 0.62888,-1.16289 0.248566,-0.17408 1.364835,-1.99248 1.364835,-2.22332 0,-0.33833 -0.526034,-0.1473 -1.835044,0.66643 -1.104422,0.68655 -1.389911,1.025 -1.618019,1.91823 -0.152338,0.59653 -0.390219,1.42978 -0.528624,1.85168 -0.445631,1.3584 -0.39099,1.38029 1.591472,0.6376 z m -5.018679,-2.42091 c 1.700798,-0.43214 2.270379,-0.68929 2.33865,-1.05583 0.08338,-0.44763 0.0431,-0.454 -0.528606,-0.0836 -0.340372,0.22054 -1.392765,0.47743 -2.33865,0.57086 -1.85067,0.18281 -3.175,0.58132 -3.175,0.9554 0,0.36519 1.262881,0.23328 3.703606,-0.38686 z m -6.746314,-4.14315 c 0.510179,-0.21923 0.508365,-0.22806 -0.05053,-0.24599 -0.318834,-0.0102 -0.653283,0.10047 -0.743219,0.24599 -0.193411,0.31294 0.06549,0.31294 0.793749,0 z m 32.421999,-4.23871 c 0.576286,-0.294 1.047792,-0.59472 1.047792,-0.66826 0,-0.0735 -0.351274,0.0479 -0.780611,0.26996 -0.429337,0.22202 -1.143712,0.40367 -1.5875,0.40367 -0.443788,0 -0.806889,0.11907 -0.806889,0.26459 0,0.4306 1.00366,0.30323 2.127208,-0.26996 z m -30.173041,-1.02465 c 0,-0.2475 -0.628632,-0.55748 -1.130543,-0.55748 -0.161432,0 -0.0624,0.17481 0.220077,0.38846 0.591932,0.44772 0.910466,0.50685 0.910466,0.16902 z m 42.597916,-0.42519 c -0.509323,-0.19613 -1.104635,-0.35661 -1.322917,-0.35661 -0.218281,0 0.01984,0.16048 0.529167,0.35661 0.509323,0.19614 1.104635,0.35662 1.322917,0.35662 0.218281,0 -0.01984,-0.16048 -0.529167,-0.35662 z m -3.704167,-0.13229 c -0.218281,-0.14106 -0.515937,-0.25648 -0.661458,-0.25648 -0.145521,0 -0.08599,0.11542 0.132292,0.25648 0.218281,0.14107 0.515937,0.25648 0.661458,0.25648 0.145521,0 0.08599,-0.11541 -0.132292,-0.25648 z m -43.750743,-0.39687 c -0.442756,-0.44276 -0.963839,-0.5262 -0.963839,-0.15434 0,0.2614 0.44866,0.49672 1.011086,0.53032 0.266114,0.0159 0.254829,-0.0739 -0.04725,-0.37598 z m 37.080611,0.22734 c 0.333248,-0.0893 0.779732,-0.49845 0.992187,-0.90929 0.44295,-0.85657 0.512477,-1.67624 0.121695,-1.43472 -0.475014,0.29358 -0.309382,-2.02557 0.169683,-2.37587 0.335881,-0.2456 0.391951,-0.5431 0.247494,-1.31314 -0.173077,-0.92258 -0.214011,-0.95964 -0.558144,-0.50537 -0.204253,0.26962 -0.375155,0.81764 -0.379785,1.21782 -0.0054,0.46663 -0.150763,0.7276 -0.405289,0.7276 -0.218281,0 -0.396875,0.1786 -0.396875,0.39688 0,0.69103 -0.76354,0.42902 -1.197981,-0.4111 -0.229801,-0.44439 -0.487568,-1.39689 -0.572815,-2.11667 -0.151257,-1.27711 -0.138149,-1.30869 0.543317,-1.30869 0.384072,0 0.698312,0.12609 0.698312,0.2802 0,0.15411 0.124844,0.20304 0.277432,0.10873 0.455742,-0.28166 -0.23267,-0.88572 -1.220632,-1.07106 -1.401987,-0.26302 -1.610328,-0.74666 -0.624139,-1.44889 l 0.835838,-0.59517 -0.626436,-0.34732 c -0.786841,-0.43626 -2.086589,-0.4496 -2.622955,-0.0269 -1.005689,0.79251 -1.310774,1.62022 -1.310774,3.55619 0,2.11475 0.28036,2.38794 1.543007,1.50355 0.941816,-0.65967 1.749592,-0.28834 2.462718,1.1321 0.343466,0.68413 0.862608,1.36977 1.15365,1.52363 0.291041,0.15387 0.572576,0.30333 0.625633,0.33213 0.05306,0.0288 -0.209208,0.59928 -0.582808,1.26772 -0.935916,1.67454 -0.686099,2.22317 0.827667,1.81767 z m 13.139195,-1.37563 c -0.35991,-0.31822 -4.097734,-1.36709 -4.868333,-1.36609 -1.235747,0.002 -0.15036,0.53044 2.121397,1.03362 2.620465,0.58043 3.091905,0.63749 2.746936,0.33247 z m -34.316495,-3.6363 c -0.252135,-0.25213 -0.757632,0.15627 -0.569727,0.4603 0.398064,0.23527 0.711721,-0.15755 0.569727,-0.46033 z m 13.421294,-1.89727 c 0.209711,-1.27229 0.648866,-1.26186 0.704622,0.0168 0.02024,0.46436 0.138374,-0.39255 0.262504,-1.90423 0.124132,-1.51168 0.360267,-2.91067 0.524748,-3.10885 0.492376,-0.59328 -0.381455,-0.44425 -1.208172,0.20605 -0.396026,0.31151 -0.97295,0.5794 -1.282049,0.59531 -0.511559,0.0263 -1.773431,1.48671 -1.773431,2.05242 0,0.124 0.34445,0.22546 0.765442,0.22546 0.843079,0 1.084633,0.37117 1.090253,1.67528 0.0098,2.2648 0.558755,2.40971 0.916083,0.24182 z m 23.686555,1.15564 c 0,-0.0563 -0.357187,-0.15469 -0.79375,-0.21876 -0.436562,-0.0641 -0.79375,-0.018 -0.79375,0.10226 0,0.12032 0.357188,0.21876 0.79375,0.21876 0.436563,0 0.79375,-0.046 0.79375,-0.10226 z m -7.744574,-2.17426 c -0.08792,-0.0879 -0.316124,-0.0973 -0.507119,-0.0209 -0.211066,0.0845 -0.148373,0.14716 0.159854,0.15986 0.278913,0.0115 0.435184,-0.0511 0.347265,-0.13897 z m -1.317405,-0.28712 c -0.254662,-0.0665 -0.67138,-0.0665 -0.926042,0 -0.254661,0.0666 -0.0463,0.12101 0.463021,0.12101 0.509323,0 0.717682,-0.0545 0.463021,-0.12101 z m -6.047616,-0.84352 c -0.306112,-0.87812 -1.466818,-2.06504 -1.74621,-1.78565 -0.104026,0.10403 0.122412,0.45177 0.503201,0.77275 0.380785,0.32098 0.826807,0.85149 0.991155,1.17891 0.420505,0.83774 0.567896,0.74059 0.251854,-0.16601 z m 9.662015,-2.11087 c 0.07695,-0.1245 -0.154154,-0.17015 -0.513551,-0.10145 -0.3594,0.0687 -0.653452,0.17057 -0.653452,0.22637 0,0.20472 1.031515,0.0943 1.167003,-0.12492 z m -41.38367,-1.09655 c 0,-0.14552 -0.126089,-0.26459 -0.280198,-0.26459 -0.154109,0 -0.206613,0.11907 -0.116677,0.26459 0.08994,0.14552 0.216026,0.26458 0.280199,0.26458 0.06417,0 0.116676,-0.11906 0.116676,-0.26458 z m 27.370053,-3.38117 c -1.153437,-2.23994 -4.109598,-5.03934 -6.274035,-5.94132 -0.954916,-0.39794 -2.133267,-0.75513 -2.618558,-0.79375 -0.737102,-0.0587 -0.896172,0.0269 -0.966348,0.5197 -0.0642,0.45088 0.187505,0.76267 1.067964,1.32291 2.142154,1.36306 3.611907,2.74998 4.878195,4.60325 1.235905,1.80881 1.280133,1.84265 2.204447,1.68649 0.518782,-0.0877 1.237671,-0.0482 1.597533,0.0877 0.35986,0.13587 0.707377,0.19791 0.772261,0.13786 0.06488,-0.06 -0.232773,-0.79031 -0.661459,-1.62281 z m -24.284407,0.66919 c -0.0734,-0.1819 -0.133452,-0.0331 -0.133452,0.33073 0,0.3638 0.06005,0.51263 0.133452,0.33073 0.0734,-0.18191 0.0734,-0.47956 0,-0.66146 z m 28.539063,0.38183 c -0.08146,-0.0815 -0.294954,-1.7e-4 -0.474432,0.18065 -0.25936,0.26131 -0.22897,0.2917 0.148114,0.14811 0.260937,-0.0994 0.407781,-0.2473 0.326318,-0.32876 z m 6.891904,-0.34762 c 0.22379,-0.3621 -0.260263,-0.2739 -0.829064,0.15106 -0.495496,0.3702 -0.492472,0.3784 0.08584,0.23265 0.329689,-0.0831 0.664139,-0.25576 0.74322,-0.38371 z m -5.448424,-3.57755 c 1.046649,-0.70872 0.669517,-0.83569 -0.603724,-0.20326 -1.29789,0.64467 -3.359213,2.066 -3.359787,2.31665 -5.3e-4,0.23195 2.353799,-1.0234 3.963511,-2.11339 z m 2.006295,1.465 c 0.128223,-0.20747 0.02405,-0.20666 -0.367403,0.003 -0.300498,0.16082 -0.62689,0.42271 -0.725315,0.58196 -0.128223,0.20747 -0.02405,0.20666 0.367403,-0.003 0.300498,-0.16082 0.62689,-0.42271 0.725315,-0.58196 z m -20.859181,-1.03052 c 0.369999,-0.29104 0.894795,-0.52916 1.166212,-0.52916 0.610722,0 0.634119,-0.4644 0.0556,-1.10365 -0.486347,-0.53741 -1.936176,-0.64792 -2.754511,-0.20996 -0.627301,0.33572 -0.662596,1.23757 -0.07389,1.88809 0.555096,0.61337 0.777166,0.60711 1.606587,-0.0453 z m -24.026934,-0.0957 c -0.06063,-0.0526 -1.003045,-0.16725 -2.094248,-0.25471 -1.292131,-0.10355 -1.845733,-0.0716 -1.5875,0.0916 0.360531,0.22791 3.939036,0.3864 3.681748,0.16306 z m 14.772569,-1.1294 c 0.327422,-0.0877 0.595312,-0.3272 0.595312,-0.53211 0,-0.35885 -1.005816,-0.88863 -1.687125,-0.88863 -0.476793,0 -1.527355,1.04499 -1.345835,1.33869 0.172537,0.27917 1.531419,0.32491 2.437648,0.082 z M 27.11598,141.11629 c -1.573002,-0.43678 -2.192503,-0.48792 -1.838854,-0.15179 0.33283,0.31634 1.102283,0.49059 2.235729,0.5063 0.854971,0.0119 0.824512,-0.0153 -0.396875,-0.35451 z m 22.356228,-0.39797 c 5.29e-4,-0.0768 -0.184283,-0.40418 -0.410813,-0.7276 -0.281663,-0.40213 -0.683178,-0.58804 -1.27,-0.58804 -1.016017,0 -1.481597,0.3838 -1.301413,1.07282 0.110072,0.42092 0.353616,0.48991 1.555831,0.44071 0.783931,-0.0321 1.425807,-0.12113 1.426395,-0.19789 z m 15.760372,-1.7578 c 0.407476,-0.53423 0.605745,-0.88781 0.440597,-0.78575 -0.338725,0.20935 -1.484162,1.75708 -1.300366,1.75708 0.0654,0 0.452294,-0.4371 0.859769,-0.97133 z m -37.32285,0.44216 c -0.08994,-0.14552 -0.66251,-0.25622 -1.272386,-0.24599 -0.862053,0.0145 -0.991082,0.0692 -0.579697,0.24599 0.748217,0.32152 2.050793,0.32152 1.852083,0 z m 44.740419,-0.72382 c -0.156837,-0.15683 -0.951878,0.25225 -0.951878,0.48979 0,0.13118 0.232709,0.0932 0.517134,-0.0844 0.284424,-0.17763 0.48006,-0.36003 0.434744,-0.40535 z m -17.74204,-0.0875 c 0.249833,-0.40424 0.01937,-0.5529 -1.204034,-0.77661 -0.908431,-0.16612 -1.068927,-0.13079 -1.001286,0.22044 0.120142,0.62385 1.887953,1.06968 2.20532,0.55617 z m -3.102832,-0.44542 c -0.07141,-0.37553 -0.462552,-0.49064 -2.069923,-0.60919 -2.406149,-0.17747 -3.721879,0.12524 -1.717291,0.39509 0.727604,0.0979 1.739635,0.27806 2.248958,0.40026 1.424067,0.34165 1.633795,0.31627 1.538256,-0.18616 z m 15.924244,-1.38906 c 0.15576,-0.29105 0.223671,-0.52917 0.150911,-0.52917 -0.07276,0 -0.259734,0.23812 -0.415494,0.52917 -0.15576,0.29104 -0.223671,0.52916 -0.150911,0.52916 0.07276,0 0.259734,-0.23812 0.415494,-0.52916 z m 4.960938,-0.27242 c 0.763984,-0.43814 1.389062,-0.91327 1.389062,-1.05585 0,-0.3733 -0.126812,-0.33336 -1.245021,0.39204 -2.455399,1.59288 -2.55366,2.04571 -0.144041,0.66381 z M 26.073223,136.087 c -0.58792,-0.44468 -0.941618,-0.4985 -0.941618,-0.14327 0,0.13485 0.208359,0.29963 0.463021,0.36618 0.865059,0.22606 0.99325,0.16636 0.478597,-0.22291 z m 21.203605,-1.61476 c -0.08018,-0.0802 -0.333161,0.21655 -0.562172,0.65941 -0.598469,1.15731 -0.504737,1.38026 0.150245,0.35736 0.306743,-0.47904 0.49211,-0.93659 0.411927,-1.01677 z m 6.411179,-0.17837 c 0.01023,-0.11773 -0.100465,-0.14047 -0.245986,-0.0505 -0.14552,0.0899 -0.256214,0.42439 -0.245985,0.74322 0.01794,0.5589 0.02675,0.56071 0.245985,0.0505 0.125066,-0.29104 0.23576,-0.62549 0.245986,-0.74321 z M 51.323611,133.459 c 0.0031,-0.44847 -0.728385,0.49473 -0.915998,1.18118 -0.168272,0.61568 -0.142888,0.60652 0.366734,-0.13229 0.301138,-0.43656 0.548306,-0.90856 0.549264,-1.04889 z m 16.720846,0.0123 c 0.255252,-0.49162 0.210966,-0.48187 -0.411318,0.0905 -0.383553,0.35279 -0.697368,0.75432 -0.697368,0.89229 0,0.35511 0.767093,-0.32488 1.108686,-0.98279 z m -38.688112,-1.7255 c 0.190262,-0.35551 0.189562,-0.56567 -0.0023,-0.68424 -0.345904,-0.21377 -1.047464,0.34406 -1.047464,0.83287 0,0.54397 0.734748,0.43994 1.04974,-0.14863 z m 27.251299,-8.71154 c -0.01921,-0.34424 -0.765582,1.17044 -0.76464,1.55173 5.29e-4,0.21828 0.174913,-0.004 0.387498,-0.49339 0.212585,-0.48965 0.382299,-0.9659 0.377142,-1.05834 z m -2.272889,-2.21447 c 0.309361,-0.68896 0.651772,-1.2545 0.760912,-1.25677 0.374089,-0.008 0.198827,-0.53328 -0.17785,-0.53328 -0.475927,0 -2.53483,2.37926 -2.518542,2.91042 0.008,0.26155 0.165311,0.17624 0.461311,-0.25022 1.084562,-1.56256 1.368261,-1.70917 0.714582,-0.36927 -0.366229,0.75068 -0.728364,1.76271 -0.804746,2.24896 -0.131819,0.83916 -0.1099,0.82359 0.43149,-0.30655 0.313701,-0.65485 0.823479,-1.75432 1.132843,-2.44329 z m -2.21565,1.59897 c 0,-0.11771 -0.119063,-0.21402 -0.264584,-0.21402 -0.14552,0 -0.264583,0.10933 -0.264583,0.24295 0,0.13362 -0.06925,0.46104 -0.153892,0.7276 -0.140819,0.4435 -0.118351,0.44104 0.264583,-0.0289 0.230161,-0.28247 0.418476,-0.6099 0.418476,-0.7276 z m 3.181749,-0.81176 c 0.316704,-0.5635 0.513056,-1.08731 0.43634,-1.16403 -0.07672,-0.0767 -0.317484,0.199 -0.535035,0.61271 -0.217548,0.4137 -0.643048,0.95938 -0.945549,1.21262 -0.703427,0.58887 -0.734915,1.11474 -0.04079,0.68125 0.280067,-0.1749 0.768335,-0.77905 1.085038,-1.34255 z m -20.609557,37.8135 c -0.349546,-0.42117 -0.13352,-0.70326 0.538572,-0.70326 0.559443,0 0.587537,-0.1079 0.211177,-0.81114 -0.197103,-0.36829 -0.188452,-0.51177 0.03086,-0.51177 0.173882,0 0.245679,-0.22589 0.167191,-0.52603 -0.08803,-0.33663 0.08595,-0.74114 0.483211,-1.1235 l 0.62077,-0.59747 -0.528422,-0.56248 c -0.474245,-0.50481 -0.483813,-0.5796 -0.09332,-0.72944 0.597584,-0.22932 0.916518,0.0204 0.916518,0.71761 0,0.32287 0.238125,0.79093 0.529167,1.04012 0.584238,0.50025 0.718387,1.99158 0.25674,2.85418 -0.56312,1.05219 -2.548822,1.65643 -3.132464,0.95318 z m 1.999775,-3.01836 c -0.06655,-0.25466 -0.121,-0.0463 -0.121,0.46302 0,0.50932 0.05445,0.71768 0.121,0.46302 0.06655,-0.25466 0.06655,-0.67138 0,-0.92604 z m 0.346783,-4.29948 c 0,-0.29104 0.105176,-0.52917 0.233725,-0.52917 0.128548,0 0.295995,0.23813 0.372104,0.52917 0.08994,0.34392 0.0081,0.52917 -0.233724,0.52917 -0.204658,0 -0.372105,-0.23813 -0.372105,-0.52917 z"
       id="path248"
       sodipodi:nodetypes="csssssssssssssssssssssssssscsssscsssssssssssssssssssscccscccsssscsssscssssssssssssssssssscssssssssssssscssssscscsssscssssssssssssscsssssssssssssssscsssssssssssssssssssssssssssssssssssscsssssscsscssscccsscssssssssssscssscscccccccssssssssssssssssssscssssccssssscsssssssssssssssssssssssssssssssssssssscscssssssssscsscsccsssssssscsssssssssssssssssssssssssssssssscssscscsssssssscssssssssssssscsscssssscccccccsscccccccsssscssssssssssssssssssscsssssssssssssssssssscsssscsscssssssssssscsssssssssssssssssssssssssssssscssssssssssssssss" /></g></svg>
