<svg preserveAspectRatio="xMidYMid meet" data-bbox="0 0.001 121.7 61.899" viewBox="0 0.001 121.7 61.899" xmlns="http://www.w3.org/2000/svg" data-type="color" role="presentation" aria-hidden="true">
    <g>
        <path d="M59.2 13.4c-.5-.3-1.1-.4-1.7-.4-.8 0-1.6.3-2.2 1-.6.6-.9 1.4-.8 2.2v.4l4.7-3.2z" fill="#004461" data-color="1"></path>
        <path d="M109.1 32.1c-.5-.3-1.1-.4-1.7-.4-.8 0-1.6.3-2.2 1-.6.6-.9 1.4-.8 2.2v.4l4.7-3.2z" fill="#004461" data-color="1"></path>
        <path d="M34.5 19.1c.8 0 1.6-.3 2.2-.8.6-.6.9-1.4 1-2.2 0-.8-.3-1.6-1-2.2-.6-.6-1.4-.9-2.2-1-1.7 0-3.1 1.4-3 3.1v.1c0 .8.3 1.6.8 2.2.6.5 1.3.8 2.2.8z" fill="#004461" data-color="1"></path>
        <path d="M83.9 31.6c-1.7 0-3.1 1.4-3 3.1v.1c0 .8.3 1.6.8 2.2.6.6 1.4.9 2.2.8.8 0 1.6-.3 2.2-.8.6-.6.9-1.4 1-2.2-.1-1.8-1.5-3.2-3.2-3.2z" fill="#004461" data-color="1"></path>
        <path d="M49.1 37.7c.8 0 1.6-.3 2.2-.8.6-.6.9-1.4 1-2.2 0-.8-.3-1.6-1-2.2-.6-.6-1.4-.9-2.2-1-1.7 0-3.1 1.4-3 3.1v.1c0 .8.3 1.6.8 2.2.6.5 1.4.8 2.2.8z" fill="#004461" data-color="1"></path>
        <path d="M86.9 45.4v-6.1c-.9.7-2 1.1-3.2 1.1-1.5 0-2.9-.6-3.9-1.7-2.2-2.2-2.2-5.8 0-8s5.8-2.2 8 0c1.1 1.1 1.7 2.5 1.7 4v10.7h-.3c9.3.1 19.9.6 32.5 1.4V13.4C76.1-4.3 21-3.3 0 9.6l17.4 52.3c2.9-1.8 5.7-3.5 8.6-5 13.7-7.3 28-11.8 60.9-11.5zm16.6-14.7c1.1-1.1 2.5-1.7 4-1.7 1.1 0 2.3.3 3.2 1 .9.6 1.6 1.5 2.1 2.5l.1.3-6.9 4.6c.5.3 1.1.4 1.7.4.8 0 1.6-.3 2.2-1 .3-.3.5-.6.6-1h2.8c-.3 1-.8 2-1.5 2.8-2.2 2.2-5.8 2.2-8 0-1.1-1.1-1.7-2.5-1.7-4-.2-1.5.3-2.9 1.4-3.9zm-12.4-1.5h2.6v6.4c0 1.2 1.1 2.2 2.3 2.1 1.2 0 2.1-1 2.1-2.1v-6.4h2.6v6.4c0 1.3-.6 2.5-1.5 3.3-1.8 1.8-4.8 1.8-6.7 0-.9-.9-1.4-2.1-1.4-3.3v-6.4zm-53.6 2.5h-1.7V40h-2.6v-8.3h-1.7v-2.6h1.7v-3.6h2.6v3.6h1.7v2.6zm4.4 8.4h-2.6V25.5h2.6v14.6zm32-14.6h2.6v2.6h-2.6v-2.6zm0 3.7h2.6v10.9h-2.6V29.2zm-7.1 0h1.7v-3.6h2.6v3.6h1.7v2.6h-1.7v8.3h-2.6v-8.3h-1.7v-2.6zm-.8 4.6v6.4h-2.6v-6.4c0-1.2-1.1-2.2-2.3-2.1-1.2 0-2.1 1-2.1 2.1v6.4h-2.6v-6.4c0-1.2.5-2.4 1.4-3.3 1.6-1.8 4.3-2 6.2-.5.2.1.3.3.5.5.9.7 1.6 2 1.5 3.3zM53.6 12c1.1-1.1 2.5-1.7 4-1.7 1.1 0 2.3.3 3.2 1 .9.6 1.6 1.5 2.1 2.5l.1.3-6.9 4.6c.5.3 1.1.4 1.7.4.8 0 1.6-.3 2.2-1 .3-.3.5-.6.6-1h2.8c-.3 1-.8 2-1.5 2.8-2.2 2.2-5.8 2.2-8 0-1.1-1.1-1.7-2.5-1.7-4-.3-1.4.3-2.9 1.4-3.9zm-7.2 3.2c0-1.3.6-2.6 1.5-3.5.9-.9 2.2-1.4 3.5-1.4h.3V13h-.3c-.6 0-1.2.2-1.7.7-.4.4-.7.9-.7 1.5v6.4h-2.6v-6.4zm2.7 13.7c3.1 0 5.7 2.5 5.7 5.7v5.5h-2.6v-.8c-.9.7-2 1.1-3.2 1.1-1.5 0-2.9-.6-3.9-1.7-2.2-2.2-2.2-5.8 0-8 1.1-1.1 2.5-1.7 4-1.8zm-7.3-22h2.5v2.6h-2.6V6.9h.1zm0 3.6h2.5v10.9h-2.6V10.5h.1zM30.4 12c2.2-2.2 5.8-2.2 8 0 1.1 1.1 1.7 2.5 1.7 4 0 3.1-2.5 5.7-5.7 5.7s-5.7-2.5-5.7-5.7c.1-1.4.7-2.9 1.7-4zM19.9 6.9h2.8v11.9h6v2.8H20V6.9zm2 33.2H19l5.1-14.7h3l5.3 14.7h-2.9l-.8-2.5h-5.8l-1 2.5z" fill="#004461" data-color="1"></path>
        <path d="M23.7 35.3h4l-1.9-5.5-2.1 5.5z" fill="#004461" data-color="1"></path>
        <path d="M26 57h95.6V46.8C66.3 43.5 46.9 45.8 26 57z" fill="#afca00" data-color="2"></path>
        <path d="M121.7 46.8c-12.6-.8-23.3-1.2-32.5-1.4H87c-33-.3-47.3 4.2-61 11.6 20.9-11.2 40.3-13.5 95.7-10.2z" fill="#afca00" data-color="2"></path>
        <path d="M34.5 21.7c3.1 0 5.7-2.5 5.7-5.7 0-3.1-2.5-5.7-5.7-5.7s-5.7 2.5-5.7 5.7c0 1.5.6 2.9 1.7 4 1 1.2 2.5 1.8 4 1.7zm-2.3-7.9c.6-.6 1.4-.9 2.2-1 .8.1 1.6.4 2.2 1 .6.6.9 1.4 1 2.2 0 1.7-1.4 3.1-3.1 3h-.1c-.8 0-1.6-.3-2.2-.8-.6-.6-.9-1.4-.8-2.2 0-.7.3-1.5.8-2.2z" fill="#ffffff" data-color="3"></path>
        <path fill="#ffffff" d="M44.4 10.5v10.9h-2.6V10.5h2.6z" data-color="3"></path>
        <path d="M49 15.2c0-.6.2-1.1.7-1.5.4-.4 1-.7 1.7-.7h.3v-2.6h-.3c-1.3 0-2.5.5-3.5 1.4-1 .9-1.5 2.1-1.5 3.5v6.4H49v-6.5z" fill="#ffffff" data-color="3"></path>
        <path d="M35.8 25.5h-2.6v3.7h-1.7v2.5h1.7v8.4h2.6v-8.4h1.7v-2.5h-1.7v-3.7z" fill="#ffffff" data-color="3"></path>
        <path fill="#ffffff" d="M41.9 25.5v14.7h-2.6V25.5h2.6z" data-color="3"></path>
        <path d="M45.1 38.6c1 1.1 2.4 1.7 3.9 1.7 1.2 0 2.3-.4 3.2-1.1v1h2.6v-5.5c0-3.1-2.5-5.7-5.7-5.7s-5.7 2.5-5.7 5.7c.1 1.4.7 2.9 1.7 3.9zm2-6.1c.6-.6 1.4-.9 2.2-1 .8 0 1.6.3 2.2 1 .6.6.9 1.4 1 2.2 0 1.7-1.4 3.1-3.1 3h-.1c-.8 0-1.6-.3-2.2-.8-.6-.6-.9-1.4-.8-2.2-.3-.8.1-1.7.8-2.2z" fill="#ffffff" data-color="3"></path>
        <path d="M57.9 30.5c-.9.9-1.4 2.1-1.4 3.3v6.4h2.6v-6.4c0-1.2 1.1-2.2 2.3-2.1 1.2 0 2.1 1 2.1 2.1v6.4h2.6v-6.4c0-1.3-.6-2.5-1.5-3.3-.9-.9-2.1-1.5-3.3-1.5-1.3-.1-2.6.5-3.4 1.5z" fill="#ffffff" data-color="3"></path>
        <path d="M68.5 40.1h2.6v-8.4h1.7v-2.5h-1.7v-3.7h-2.6v3.7h-1.7v2.5h1.7v8.4z" fill="#ffffff" data-color="3"></path>
        <path fill="#ffffff" d="M76.5 29.2v10.9h-2.6V29.2h2.6z" data-color="3"></path>
        <path fill="#ffffff" d="M76.5 25.5v2.6h-2.6v-2.6h2.6z" data-color="3"></path>
        <path d="M89.5 34.6c0-3.1-2.5-5.7-5.7-5.7-3.1 0-5.7 2.5-5.7 5.7 0 1.5.6 2.9 1.7 4 1 1.1 2.4 1.7 3.9 1.7 1.2 0 2.3-.4 3.2-1.1v6.1h2.5V34.6h.1zm-3.6 2.2c-.6.6-1.4.9-2.2.8-.8 0-1.6-.3-2.2-.8-.6-.6-.9-1.4-.8-2.2 0-.8.3-1.6.8-2.2.6-.6 1.4-.9 2.2-1 .8 0 1.6.3 2.2 1 .6.6.9 1.4 1 2.2 0 .9-.3 1.7-1 2.2z" fill="#ffffff" data-color="3"></path>
        <path d="M95.9 40.3c1.3 0 2.5-.5 3.3-1.4.9-.9 1.5-2.1 1.5-3.3v-6.4h-2.6v6.4c0 1.2-1.1 2.2-2.3 2.1-1.2 0-2.1-1-2.1-2.1v-6.4h-2.6v6.4c0 1.2.5 2.4 1.4 3.3.9.9 2.1 1.4 3.4 1.4z" fill="#ffffff" data-color="3"></path>
        <path d="M57.7 21.7c1.5 0 3-.6 4-1.7.7-.8 1.2-1.7 1.5-2.8h-2.8c-.1.4-.3.7-.6 1-.5.7-1.4 1-2.2 1-.6 0-1.1-.1-1.7-.4l6.9-4.6-.1-.4c-.4-1-1.1-1.9-2.1-2.5-.9-.7-2-1-3.2-1-3.1 0-5.7 2.5-5.7 5.7 0 1.5.6 3 1.7 4 1.3 1.2 2.8 1.8 4.3 1.7zm-2.2-7.9c.6-.6 1.4-1 2.2-1 .6 0 1.1.1 1.7.4l-4.6 3v-.4c-.2-.6.1-1.5.7-2z" fill="#ffffff" data-color="3"></path>
        <path d="M107.5 40.3c1.5 0 3-.6 4-1.7.7-.8 1.2-1.7 1.5-2.8h-2.8c-.1.4-.3.7-.6 1-.5.7-1.4 1-2.2 1-.6 0-1.1-.1-1.7-.4l6.9-4.6-.1-.3c-.4-1-1.1-1.9-2.1-2.5-.9-.7-2-1-3.2-1-3.1 0-5.7 2.5-5.7 5.7 0 1.5.6 2.9 1.7 4 1.4 1 2.8 1.6 4.3 1.6zm-2.2-7.8c.6-.6 1.4-1 2.2-1 .6 0 1.1.1 1.7.4l-4.6 3v-.4c-.1-.7.2-1.4.7-2z" fill="#ffffff" data-color="3"></path>
        <path d="M28.6 18.8h-6.1V6.9h-2.6v14.7h8.7v-2.8z" fill="#ffffff" data-color="3"></path>
        <path d="M29.5 40.1h2.9l-5.1-14.7h-3l-5.1 14.7H22l.8-2.5h5.8l.9 2.5zm-5.8-4.8 2.1-5.5 2.1 5.5h-4.2z" fill="#ffffff" data-color="3"></path>
        <path fill="#ffffff" d="M44.4 6.9v2.6h-2.6V6.9h2.6z" data-color="3"></path>
    </g>
</svg>